<svg xmlns="http://www.w3.org/2000/svg" viewBox="0 0 64 64" fill="#000000">
  <!-- Band loop shape (elongated oval with opening) -->
  <path d="M16 20 C8 20 4 28 4 32 C4 36 8 44 16 44 L48 44 C56 44 60 36 60 32 C60 28 56 20 48 20 Z M16 24 L48 24 C53 24 56 28 56 32 C56 36 53 40 48 40 L16 40 C11 40 8 36 8 32 C8 28 11 24 16 24 Z" fill-rule="evenodd"/>
  <!-- Stretch indication lines -->
  <path d="M18 16 L14 20" fill="none" stroke="#000000" stroke-width="2" stroke-linecap="round"/>
  <path d="M32 14 L32 20" fill="none" stroke="#000000" stroke-width="2" stroke-linecap="round"/>
  <path d="M46 16 L50 20" fill="none" stroke="#000000" stroke-width="2" stroke-linecap="round"/>
  <path d="M18 48 L14 44" fill="none" stroke="#000000" stroke-width="2" stroke-linecap="round"/>
  <path d="M32 50 L32 44" fill="none" stroke="#000000" stroke-width="2" stroke-linecap="round"/>
  <path d="M46 48 L50 44" fill="none" stroke="#000000" stroke-width="2" stroke-linecap="round"/>
</svg>
