<svg xmlns="http://www.w3.org/2000/svg" viewBox="0 0 64 64" fill="#000000">
  <!-- Vertical frame post -->
  <rect x="28" y="4" width="4" height="52" rx="1"/>
  <!-- Seat -->
  <rect x="18" y="40" width="18" height="5" rx="2"/>
  <!-- Seat back -->
  <rect x="26" y="20" width="6" height="26" rx="2"/>
  <!-- Left arm -->
  <path d="M28 14 L12 14 L10 16 L10 28 L13 28 L13 18 L28 18 Z"/>
  <!-- Right arm -->
  <path d="M32 14 L48 14 L50 16 L50 28 L47 28 L47 18 L32 18 Z"/>
  <!-- Left pad -->
  <rect x="8" y="16" width="4" height="14" rx="2"/>
  <!-- Right pad -->
  <rect x="48" y="16" width="4" height="14" rx="2"/>
  <!-- Base -->
  <rect x="16" y="52" width="22" height="4" rx="1.5"/>
  <!-- Support -->
  <rect x="28" y="46" width="4" height="10" rx="1"/>
</svg>
