<svg xmlns="http://www.w3.org/2000/svg" viewBox="0 0 64 64" fill="#000000">
  <!-- Seat -->
  <rect x="16" y="42" width="16" height="6" rx="2"/>
  <!-- Seat back (tall) -->
  <rect x="12" y="14" width="6" height="34" rx="2"/>
  <!-- Base -->
  <rect x="10" y="52" width="22" height="4" rx="1.5"/>
  <!-- Support post -->
  <rect x="14" y="48" width="4" height="8" rx="1"/>
  <!-- Press arm going upward -->
  <path d="M18 22 L18 8 L42 8 L42 14 L46 14 L46 20 L42 20 L22 20 L22 22 Z"/>
  <!-- Handle grips (vertical at top) -->
  <rect x="44" y="8" width="3" height="14" rx="1.5"/>
  <!-- Weight stack -->
  <rect x="4" y="12" width="6" height="38" rx="1"/>
  <rect x="4" y="18" width="6" height="1"/>
  <rect x="4" y="24" width="6" height="1"/>
  <rect x="4" y="30" width="6" height="1"/>
  <rect x="4" y="36" width="6" height="1"/>
  <rect x="4" y="42" width="6" height="1"/>
</svg>
