<svg xmlns="http://www.w3.org/2000/svg" viewBox="0 0 64 64" fill="#000000">
  <!-- Vertical frame -->
  <rect x="28" y="4" width="4" height="52" rx="1"/>
  <!-- Top crossbar -->
  <rect x="20" y="4" width="24" height="3" rx="1.5"/>
  <!-- Pulldown bar (wide) -->
  <rect x="8" y="12" width="48" height="3" rx="1.5"/>
  <!-- Bar curve down left -->
  <rect x="8" y="12" width="3" height="8" rx="1.5"/>
  <!-- Bar curve down right -->
  <rect x="53" y="12" width="3" height="8" rx="1.5"/>
  <!-- Cable from top to bar -->
  <rect x="31" y="7" width="2" height="5"/>
  <!-- Seat -->
  <rect x="18" y="42" width="18" height="5" rx="2"/>
  <!-- Thigh pad -->
  <rect x="16" y="38" width="22" height="3" rx="1.5"/>
  <!-- Base -->
  <rect x="14" y="52" width="26" height="4" rx="1.5"/>
  <!-- Weight stack -->
  <rect x="54" y="10" width="6" height="38" rx="1"/>
  <rect x="54" y="16" width="6" height="1"/>
  <rect x="54" y="22" width="6" height="1"/>
  <rect x="54" y="28" width="6" height="1"/>
  <rect x="54" y="34" width="6" height="1"/>
  <rect x="54" y="40" width="6" height="1"/>
</svg>
