<svg xmlns="http://www.w3.org/2000/svg" viewBox="0 0 64 64" fill="#000000">
  <!-- Bench pad (flat, for lying prone) -->
  <rect x="8" y="26" width="32" height="5" rx="2"/>
  <!-- Bench support left -->
  <rect x="10" y="31" width="4" height="18" rx="1"/>
  <!-- Bench support right -->
  <rect x="34" y="31" width="4" height="18" rx="1"/>
  <!-- Leg curl arm (angled back) -->
  <path d="M38 31 L50 22 L52 24 L40 33 Z"/>
  <!-- Ankle roller pad -->
  <ellipse cx="52" cy="22" rx="4" ry="3"/>
  <!-- Base frame -->
  <rect x="6" y="48" width="34" height="4" rx="1.5"/>
  <!-- Rear support -->
  <rect x="46" y="20" width="4" height="32" rx="1"/>
  <!-- Base extension -->
  <rect x="44" y="48" width="12" height="4" rx="1.5"/>
  <!-- Weight stack -->
  <rect x="54" y="10" width="5" height="34" rx="1"/>
  <rect x="54" y="16" width="5" height="1"/>
  <rect x="54" y="22" width="5" height="1"/>
  <rect x="54" y="28" width="5" height="1"/>
  <rect x="54" y="34" width="5" height="1"/>
</svg>
