<svg xmlns="http://www.w3.org/2000/svg" viewBox="0 0 64 64" fill="#000000">
  <!-- Frame vertical -->
  <rect x="12" y="6" width="4" height="50" rx="1"/>
  <!-- Frame horizontal top -->
  <rect x="12" y="6" width="40" height="3" rx="1.5"/>
  <!-- Seat -->
  <rect x="20" y="38" width="18" height="5" rx="2"/>
  <!-- Seat back -->
  <rect x="16" y="18" width="6" height="26" rx="2"/>
  <!-- Exercise arm -->
  <rect x="22" y="22" width="28" height="3" rx="1.5"/>
  <!-- Handle -->
  <rect x="48" y="18" width="3" height="10" rx="1.5"/>
  <!-- Weight stack -->
  <rect x="6" y="10" width="6" height="38" rx="1"/>
  <rect x="6" y="16" width="6" height="1"/>
  <rect x="6" y="22" width="6" height="1"/>
  <rect x="6" y="28" width="6" height="1"/>
  <rect x="6" y="34" width="6" height="1"/>
  <rect x="6" y="40" width="6" height="1"/>
  <!-- Base -->
  <rect x="10" y="52" width="24" height="4" rx="1.5"/>
  <!-- Support -->
  <rect x="22" y="44" width="4" height="12" rx="1"/>
</svg>
