<svg xmlns="http://www.w3.org/2000/svg" viewBox="0 0 64 64" fill="#000000">
  <!-- Head -->
  <circle cx="32" cy="12" r="6"/>
  <!-- Torso -->
  <path d="M28 20 L26 38 L38 38 L36 20 Z"/>
  <!-- Left arm -->
  <path d="M26 22 L16 32 L14 38 L17 39 L19 34 L28 26 Z"/>
  <!-- Right arm -->
  <path d="M36 22 L46 28 L50 24 L48 22 L44 26 L36 22 Z"/>
  <!-- Left leg -->
  <path d="M28 38 L22 56 L18 58 L17 56 L24 38 Z"/>
  <!-- Right leg -->
  <path d="M36 38 L40 56 L44 58 L45 56 L38 38 Z"/>
  <!-- Left foot -->
  <rect x="15" y="56" width="8" height="3" rx="1.5"/>
  <!-- Right foot -->
  <rect x="40" y="56" width="8" height="3" rx="1.5"/>
</svg>
