<svg xmlns="http://www.w3.org/2000/svg" viewBox="0 0 64 64" fill="#000000">
  <!-- Left tower -->
  <rect x="4" y="4" width="6" height="52" rx="1"/>
  <!-- Right tower -->
  <rect x="54" y="4" width="6" height="52" rx="1"/>
  <!-- Top crossbar -->
  <rect x="4" y="4" width="56" height="3" rx="1.5"/>
  <!-- Left pulley -->
  <circle cx="10" cy="10" r="3"/>
  <!-- Right pulley -->
  <circle cx="54" cy="10" r="3"/>
  <!-- Left cable (drooping) -->
  <path d="M10 13 Q10 30 20 36" fill="none" stroke="#000000" stroke-width="2" stroke-linecap="round"/>
  <!-- Right cable (drooping) -->
  <path d="M54 13 Q54 30 44 36" fill="none" stroke="#000000" stroke-width="2" stroke-linecap="round"/>
  <!-- Left handle -->
  <rect x="18" y="34" width="3" height="8" rx="1.5"/>
  <!-- Right handle -->
  <rect x="43" y="34" width="3" height="8" rx="1.5"/>
  <!-- Base left -->
  <rect x="2" y="56" width="14" height="4" rx="1"/>
  <!-- Base right -->
  <rect x="48" y="56" width="14" height="4" rx="1"/>
  <!-- Weight stack left -->
  <rect x="6" y="16" width="4" height="30" rx="0.5"/>
  <!-- Weight stack right -->
  <rect x="54" y="16" width="4" height="30" rx="0.5"/>
</svg>
